<svg width="40" height="37" viewBox="0 0 40 37" fill="none" xmlns="http://www.w3.org/2000/svg">
<g clip-path="url(#clip0_215_2614)">
<path d="M20.4323 37.0001C31.1818 37.0001 39.8959 28.7173 39.8959 18.5C39.8959 8.28275 31.1818 0 20.4323 0C9.68289 0 0.96875 8.28275 0.96875 18.5C0.96875 28.7173 9.68289 37.0001 20.4323 37.0001Z" fill="white"/>
<path d="M18.4251 27.8078H7.87219V29.4555H18.4251V27.8078Z" fill="#324A5E"/>
<path d="M16.4483 13.7883L7.87219 26.2469V27.8078H17.1782L16.4483 13.7883Z" fill="#ACB3BA"/>
<path d="M32.9924 27.8078H22.4395V29.4555H32.9924V27.8078Z" fill="#324A5E"/>
<path d="M24.4162 13.7883L32.9924 26.2469V27.8078H23.6863L24.4162 13.7883Z" fill="#ACB3BA"/>
<path d="M17.3911 6.99533C16.2659 9.53905 15.5664 12.8344 15.5664 14.2797C15.5664 18.0664 15.5664 29.4265 15.5664 29.4265H25.2982C25.2982 29.4265 25.2982 18.0663 25.2982 14.2797C25.2982 12.8055 24.5988 9.53905 23.4735 6.99533H17.3911Z" fill="#DBDBDB"/>
<path d="M18.7901 6.99533C18.1818 9.53905 17.8169 12.8344 17.8169 14.2797C17.8169 18.0664 17.8169 29.4265 17.8169 29.4265H23.0781C23.0781 29.4265 23.0781 18.0663 23.0781 14.2797C23.0781 12.8055 22.6828 9.53905 22.1049 6.99533H18.7901Z" fill="#EAEAEA"/>
<path d="M22.2265 10.6953C21.2229 9.74139 19.6111 9.74139 18.6379 10.6953L17.5735 9.68356C19.1549 8.18043 21.7399 8.18043 23.3213 9.68356L22.2265 10.6953Z" fill="#324A5E"/>
<path d="M19.155 29.4265H14.9581V31.132H19.155V29.4265Z" fill="#324A5E"/>
<path d="M19.1246 29.4265H14.9581V24.7437C14.9581 23.7609 15.8097 22.9516 16.8436 22.9516H17.239C18.273 22.9516 19.1245 23.761 19.1245 24.7437V29.4265H19.1246Z" fill="white"/>
<path d="M25.9368 29.4265H21.74V31.132H25.9368V29.4265Z" fill="#324A5E"/>
<path d="M25.9064 29.4265H21.74V24.7437C21.74 23.7609 22.5915 22.9516 23.6255 22.9516H24.0208C25.0549 22.9516 25.9063 23.761 25.9063 24.7437V29.4265H25.9064Z" fill="white"/>
<path d="M12.282 26.3336C13.0378 26.3336 13.6505 25.7512 13.6505 25.0328C13.6505 24.3144 13.0378 23.7321 12.282 23.7321C11.5262 23.7321 10.9135 24.3144 10.9135 25.0328C10.9135 25.7512 11.5262 26.3336 12.282 26.3336Z" fill="#54C0EB"/>
<path d="M28.5826 26.3336C29.3385 26.3336 29.9512 25.7512 29.9512 25.0328C29.9512 24.3144 29.3385 23.7321 28.5826 23.7321C27.8268 23.7321 27.2141 24.3144 27.2141 25.0328C27.2141 25.7512 27.8268 26.3336 28.5826 26.3336Z" fill="#54C0EB"/>
<path d="M20.4323 3.58438C19.2767 3.58438 18.2122 5.08751 17.3911 6.99533H23.4735C22.6523 5.08751 21.588 3.58438 20.4323 3.58438Z" fill="#324A5E"/>
<path d="M10.9134 14.7133L11.1566 15.4359H11.9474L11.3088 15.8696L11.552 16.5633L10.9134 16.1297L10.2747 16.5633L10.5181 15.8696L9.87939 15.4359H10.6701L10.9134 14.7133Z" fill="white"/>
<path d="M30.9547 9.68356L31.4413 11.0711H32.9923L31.7454 11.9383L32.2016 13.3547L30.9547 12.4875L29.7079 13.3547L30.1944 11.9383L28.9172 11.0711H30.4682L30.9547 9.68356Z" fill="white"/>
<path d="M12.2819 6.35936L12.7381 7.77581H14.2891L13.0422 8.64296L13.5288 10.0305L12.2819 9.16326L11.0046 10.0305L11.4912 8.64296L10.2443 7.77581H11.7953L12.2819 6.35936Z" fill="white"/>
<path d="M31.5934 17.3438L31.7454 17.7773H32.2016L31.8367 18.0375L31.9583 18.4711L31.5934 18.2109L31.198 18.4711L31.3501 18.0375L30.9547 17.7773H31.4413L31.5934 17.3438Z" fill="white"/>
</g>
<defs>
<clipPath id="clip0_215_2614">
<rect width="38.9271" height="37" fill="white" transform="translate(0.96875)"/>
</clipPath>
</defs>
</svg>
